<?xml version="1.0" encoding="UTF-8"?>
<svg version="1.1" viewBox="0 0 100 36" xmlns="http://www.w3.org/2000/svg">
	<g fill="#eaa9af">
		<path d="m36.1 8.14-5.39 6.75-0.17-0.66-2.57 3.31-0.75-2.57 5.12-6.83zm-7.19 0v11.2h-3.47v-11.2zm3.04 3.55 4.42 7.67h-3.93l-3.06-5.75zm15.3-1.85v9.52h-3.76l-2.31-4.4-0.71-1.52 0.11 2.45v3.47h-3.17v-9.52h3.76l2.29 4.37 0.73 1.55-0.1-2.45v-3.47zm0.68 9.52 3.39-9.52h4.11l3.37 9.52h-3.39l-0.49-1.75h-3.26l-0.51 1.75zm4.35-3.96h2.03l-0.99-3.26zm7.57 3.96v-9.52h5.58q1.8 0 2.65 0.66 0.86 0.63 0.86 1.89 0 0.85-0.51 1.43-0.49 0.58-1.51 0.76v0.1q1.16 0.12 1.72 0.7t0.56 1.51q0 1.23-0.87 1.87-0.86 0.65-2.6 0.65zm3.2-2.12h1.81q0.45 0 0.7-0.19 0.26-0.21 0.26-0.63 0-0.46-0.26-0.65-0.25-0.18-0.7-0.18h-1.81zm0-3.64h1.46q0.56 0 0.8-0.19 0.25-0.2 0.25-0.63 0-0.41-0.25-0.61-0.24-0.2-0.8-0.2h-1.46zm11.1-3.76v9.52h-3.44v-9.52zm11.9 0v9.52h-3.8l-2.26-4.4-0.72-1.52 0.1 2.45v3.47h-3.16v-9.52h3.76l2.28 4.37 0.7 1.55v-5.92zm6.7 9.66q-1.6 0-2.8-0.58-1.1-0.58-1.7-1.67-0.6-1.1-0.6-2.65t0.6-2.63q0.6-1.11 1.7-1.69 1.2-0.58 2.8-0.58 1.5 0 2.7 0.58 1.1 0.58 1.7 1.69 0.6 1.08 0.6 2.63t-0.6 2.65q-0.6 1.09-1.7 1.67-1.2 0.58-2.7 0.58zm0-2.57q0.5 0 0.9-0.24 0.3-0.25 0.5-0.76t0.2-1.33q0-0.83-0.2-1.33-0.2-0.51-0.5-0.74-0.4-0.26-0.9-0.26-0.6 0-0.9 0.26-0.4 0.23-0.6 0.74-0.2 0.5-0.2 1.33 0 0.82 0.2 1.33t0.6 0.76q0.3 0.24 0.9 0.24z"/>
		<path d="m39.2 23.1v11.2h-3.06v-4.49l0.1-3.62-2.46 8.11h-2.79l-2.43-8.11h-0.1l0.1 3.62v4.49h-3.11v-11.2h4.89l1.52 5.32 0.56 2.23 0.56-2.23 1.52-5.32zm1.04 11.2 3.38-9.52h4.11l3.37 9.52h-3.38l-0.5-1.75h-3.26l-0.51 1.75zm4.35-3.96h2.02l-0.98-3.26zm11.2 4.1q-1.36 0-2.39-0.56-1.04-0.58-1.64-1.67-0.57-1.11-0.57-2.67t0.61-2.65q0.63-1.11 1.78-1.67 1.16-0.58 2.76-0.58 1.75 0 2.94 0.77 1.19 0.75 1.56 2.14l-2.94 0.78q-0.15-0.73-0.54-0.97-0.39-0.25-0.9-0.25-0.56 0-0.99 0.27-0.41 0.26-0.65 0.8-0.22 0.53-0.22 1.36 0 0.85 0.22 1.43 0.23 0.56 0.67 0.83 0.46 0.27 1.14 0.27 0.34 0 0.59-0.1 0.27-0.1 0.46-0.26 0.19-0.17 0.27-0.37 0.1-0.22 0.1-0.48v-0.1h-1.76v-1.71h4.48v5.18h-2.12l-0.1-1.39q-0.34 0.63-1.01 1.08-0.66 0.45-1.75 0.45zm10.2-9.66v9.52h-3.43v-9.52zm0.66 9.52 3.39-9.52h4.11l3.37 9.52h-3.39l-0.49-1.75h-3.26l-0.51 1.75zm4.36-3.96h2.02l-0.99-3.26z"/>
		<path d="m5.66 5.5a10 10 0 0 0-3.42 7.53 10 10 0 0 0 10 10 10 10 0 0 0 10-10 10 10 0 0 0-3.38-7.49 8 8 0 0 1 1.38 4.49 8 8 0 0 1-8 8 8 8 0 0 1-8-8 8 8 0 0 1 1.42-4.53z"/>
		<polygon transform="matrix(.5 0 0 .5 7.76 1.5)" points="0 7 15 18 9 0 3 18 18 7"/>
	</g>
	<line x1="12.3" x2="12.3" y1="21.5" y2="34.5" fill="none" stroke="#eaa9af" stroke-width="4"/>
	<line x1="7.26" x2="17.3" y1="28.5" y2="28.5" fill="none" stroke="#eaa9af" stroke-width="4"/>
</svg>
