<?xml version="1.0" encoding="UTF-8"?>
<svg version="1.1" xmlns="http://www.w3.org/2000/svg" viewBox="0 0 30 20">
	<rect width="30" height="20" fill="#fff"/>
	<g display="none">
		<polyline points="0,07 30,07" stroke="#f00"/>
		<polyline points="0,08 30,08" stroke="#f90"/>
		<polyline points="0,09 30,09" stroke="#fc0"/>
		<polyline points="0,10 30,10" stroke="#6c3"/>
		<polyline points="0,11 30,11" stroke="#39f"/>
		<polyline points="0,12 30,12" stroke="#00c"/>
		<polyline points="0,13 30,13" stroke="#609"/>
	</g>
	<rect width="1" height="20" fill="#f00" x="3"/>
	<rect width="1" height="20" fill="#f90" x="4"/>
	<rect width="1" height="20" fill="#fc0" x="5"/>
	<rect width="1" height="20" fill="#6c3" x="6"/>
	<rect width="1" height="20" fill="#39f" x="7"/>
	<rect width="1" height="20" fill="#00c" x="8"/>
	<rect width="1" height="20" fill="#609" x="9"/>
	<path d="m15 13h10l-5-8.7zm5 3 5-9h-10z"/>
</svg>
